<?xml version="1.0" encoding="UTF-8"?>
<svg width="46px" height="31px" viewBox="0 0 46 31" version="1.1" xmlns="http://www.w3.org/2000/svg" xmlns:xlink="http://www.w3.org/1999/xlink">
    <!-- Generator: sketchtool 49.3 (51167) - http://www.bohemiancoding.com/sketch -->
    <title>5A47D1DC-80A8-4A5B-A11D-532B357FBE0F</title>
    <desc>Created with sketchtool.</desc>
    <defs></defs>
    <g id="Page-1" stroke="none" stroke-width="1" fill="none" fill-rule="evenodd">
        <g id="010a_list" transform="translate(-1263.000000, -39.000000)" fill="#000000">
            <path d="M1284.83353,64.9184665 C1284.83353,65.8435655 1284.85437,66.6260182 1284.89578,67.2652642 C1284.93747,67.9047904 1284.97202,68.3332897 1285,68.5510425 L1278.92791,68.5510425 C1278.89993,68.4151222 1278.86566,68.1567334 1278.82426,67.7753157 C1278.78229,67.3947388 1278.76173,66.9998692 1278.76173,66.5915477 C1278.29001,67.2997347 1277.56216,67.8773261 1276.57846,68.3265638 C1275.5939,68.775241 1274.47829,69 1273.23046,69 C1271.76048,69 1270.40272,68.734605 1269.15489,68.2038151 C1267.90735,67.6735857 1266.826,66.9387751 1265.91112,65.999944 C1264.99624,65.0611128 1264.28209,63.9387191 1263.76925,62.6324826 C1263.25585,61.3262462 1263,59.8981018 1263,58.3466482 C1263,56.8506838 1263.24957,55.4558889 1263.7487,54.1633846 C1264.24754,52.8708804 1264.94055,51.7487669 1265.82802,50.7959233 C1266.71521,49.8439205 1267.76829,49.1018235 1268.98842,48.5715941 C1270.20827,48.0408041 1271.55289,47.7754092 1273.02258,47.7754092 C1273.90977,47.7754092 1274.67188,47.8505157 1275.30979,48.0001681 C1275.94741,48.1498206 1276.48794,48.3266572 1276.93196,48.5303976 C1277.37513,48.7346985 1277.72863,48.9588969 1277.99247,49.2038338 C1278.25574,49.4487706 1278.45648,49.6670839 1278.59525,49.8570921 L1278.59525,39 L1284.83353,39 L1284.83353,64.9184665 Z M1302.33306,48.8140292 C1303.66679,49.3566199 1304.82601,50.1153295 1305.81243,51.0890116 C1306.79828,52.0635537 1307.57615,53.2180994 1308.14575,54.5540819 C1308.71477,55.8897777 1309,57.365349 1309,58.9787894 C1309,60.5933762 1308.71477,62.0752534 1308.14575,63.4249941 C1307.57615,64.7750215 1306.79828,65.9370196 1305.81243,66.9107017 C1304.82601,67.8852438 1303.66679,68.6430935 1302.33306,69.1859708 C1300.9999,69.7285614 1299.55545,70 1298,70 C1296.44427,70 1295.0001,69.7285614 1293.66694,69.1859708 C1292.33321,68.6430935 1291.17313,67.8852438 1290.18728,66.9107017 C1289.20114,65.9370196 1288.42299,64.7750215 1287.85425,63.4249941 C1287.28466,62.0752534 1287,60.5933762 1287,58.9787894 C1287,57.365349 1287.28466,55.8897777 1287.85425,54.5540819 C1288.42299,53.2180994 1289.20114,52.0635537 1290.18728,51.0890116 C1291.17313,50.1153295 1292.33321,49.3566199 1293.66694,48.8140292 C1295.0001,48.271152 1296.44427,48 1298,48 C1299.55545,48 1300.9999,48.271152 1302.33306,48.8140292 Z M1299.74999,63.8423274 C1300.30557,63.6336608 1300.79821,63.3140683 1301.22905,62.8824035 C1301.65961,62.451312 1302.00663,61.9156005 1302.27098,61.2749824 C1302.53446,60.6352242 1302.66663,59.8702087 1302.66663,58.9787894 C1302.66663,58.1168929 1302.53446,57.3581833 1302.27098,56.703807 C1302.00663,56.0502905 1301.65961,55.5142924 1301.22905,55.0969591 C1300.79821,54.6790526 1300.30557,54.3663392 1299.74999,54.1573859 C1299.19412,53.9487193 1298.61079,53.8440993 1298,53.8440993 C1297.41667,53.8440993 1296.83964,53.9487193 1296.2709,54.1573859 C1295.7013,54.3663392 1295.20122,54.6790526 1294.77095,55.0969591 C1294.33982,55.5142924 1293.9928,56.0502905 1293.72902,56.703807 C1293.46468,57.3581833 1293.33337,58.1168929 1293.33337,58.9787894 C1293.33337,59.8418323 1293.46468,60.6008286 1293.72902,61.2543451 C1293.9928,61.9084347 1294.33982,62.451312 1294.77095,62.8824035 C1295.20122,63.3140683 1295.7013,63.6336608 1296.2709,63.8423274 C1296.83964,64.0512807 1297.41667,64.155614 1298,64.155614 C1298.61079,64.155614 1299.19412,64.0512807 1299.74999,63.8423274 Z M1269.7374,60.5917159 C1269.98697,61.2180704 1270.32591,61.7415739 1270.75622,62.1633473 C1271.18568,62.5854009 1271.68481,62.9048838 1272.25333,63.1226366 C1272.82099,63.3406696 1273.41064,63.4491256 1274.02084,63.4491256 C1274.63019,63.4491256 1275.21956,63.3406696 1275.78807,63.1226366 C1276.35602,62.9048838 1276.85515,62.5854009 1277.28518,62.1633473 C1277.71492,61.7415739 1278.05472,61.2180704 1278.304,60.5917159 C1278.55385,59.9662021 1278.67863,59.2313915 1278.67863,58.3875645 C1278.67863,57.5445781 1278.55385,56.8097676 1278.304,56.1836933 C1278.05472,55.5578993 1277.71492,55.0343958 1277.28518,54.6120619 C1276.85515,54.1905687 1276.35602,53.8775316 1275.78807,53.6735109 C1275.21956,53.4692101 1274.63019,53.3671998 1274.02084,53.3671998 C1273.41064,53.3671998 1272.82099,53.4692101 1272.25333,53.6735109 C1271.68481,53.8775316 1271.18568,54.1905687 1270.75622,54.6120619 C1270.32591,55.0343958 1269.98697,55.5578993 1269.7374,56.1836933 C1269.48784,56.8097676 1269.36306,57.5445781 1269.36306,58.3875645 C1269.36306,59.2313915 1269.48784,59.9662021 1269.7374,60.5917159 Z" id="di_to-do-p3"></path>
        </g>
    </g>
</svg>