<?xml version="1.0" encoding="UTF-8"?>
<svg width="101px" height="33px" viewBox="0 0 101 33" version="1.1" xmlns="http://www.w3.org/2000/svg" xmlns:xlink="http://www.w3.org/1999/xlink">
    <!-- Generator: sketchtool 49.3 (51167) - http://www.bohemiancoding.com/sketch -->
    <title>82786753-5333-4B97-B356-BBFF8E7003E1</title>
    <desc>Created with sketchtool.</desc>
    <defs></defs>
    <g id="Page-1" stroke="none" stroke-width="1" fill="none" fill-rule="evenodd">
        <g id="010a_list" transform="translate(-130.000000, -38.000000)" fill="#000000">
            <path d="M164.62617,38 C165.023913,38 165.360114,38.5285739 165.279198,38.6579913 L160.05355,70.2372696 C159.946137,70.5994087 159.573466,70.8952609 159.400237,70.8952609 L131.965086,70.8952609 C131.104924,70.8952609 130.658461,70.8952609 130.658461,70.2372696 L133.924455,51.1581043 C134.14726,50.4616609 134.584036,50.4992522 135.231081,50.500113 L142.416383,50.500113 C142.950316,50.4992522 143.373986,51.0284 143.069695,51.8158087 L141.109757,62.3425217 C140.974992,63.1649391 141.138248,63.6585043 141.76307,63.6585043 L151.561623,63.6585043 C151.916628,63.6585043 152.034299,62.8644957 152.214651,62.3425217 L154.827617,46.5527391 C154.938735,46.1960522 154.964947,45.2373304 154.174589,45.2373304 L130.658461,45.2373304 C130.658461,45.2373304 129.932209,45.2955826 130.005148,44.5793391 L130.658461,38.6579913 C130.782114,38 131.352802,38 131.965086,38 L164.62617,38 Z M175.731064,70.2372696 C175.734483,70.5090174 175.369221,70.8912435 175.077751,70.8952609 L167.239137,70.8952609 C166.926299,70.8984174 166.529126,70.5038522 166.585824,70.2372696 L171.811472,38.6579913 C171.806059,38.3265565 172.17531,38 172.464785,38 L180.303114,38 C180.619371,38 181.037913,38.521687 180.956427,38.6579913 L175.731064,70.2372696 Z M202.798311,46.1762718 L202.798311,69 L196.15957,69 L196.15957,46.1762718 L187,46.1762718 L187,40 L212,40 L212,46.1762718 L202.798311,46.1762718 Z M224.333056,48.8140292 C225.666788,49.3566199 226.826008,50.1153295 227.812432,51.0890116 C228.798283,52.0635537 229.576151,53.2180994 230.145748,54.5540819 C230.714772,55.8897777 231,57.365349 231,58.9787894 C231,60.5933762 230.714772,62.0752534 230.145748,63.4249941 C229.576151,64.7750215 228.798283,65.9370196 227.812432,66.9107017 C226.826008,67.8852438 225.666788,68.6430935 224.333056,69.1859708 C222.999896,69.7285614 221.555449,70 220,70 C218.444265,70 217.000104,69.7285614 215.666944,69.1859708 C214.333212,68.6430935 213.173134,67.8852438 212.187282,66.9107017 C211.201144,65.9370196 210.422991,64.7750215 209.854252,63.4249941 C209.284655,62.0752534 209,60.5933762 209,58.9787894 C209,57.365349 209.284655,55.8897777 209.854252,54.5540819 C210.422991,53.2180994 211.201144,52.0635537 212.187282,51.0890116 C213.173134,50.1153295 214.333212,49.3566199 215.666944,48.8140292 C217.000104,48.271152 218.444265,48 220,48 C221.555449,48 222.999896,48.271152 224.333056,48.8140292 Z M221.749987,63.8423274 C222.305566,63.6336608 222.798205,63.3140683 223.229051,62.8824035 C223.65961,62.451312 224.006632,61.9156005 224.270975,61.2749824 C224.53446,60.6352242 224.666632,59.8702087 224.666632,58.9787894 C224.666632,58.1168929 224.53446,57.3581833 224.270975,56.703807 C224.006632,56.0502905 223.65961,55.5142924 223.229051,55.0969591 C222.798205,54.6790526 222.305566,54.3663392 221.749987,54.1573859 C221.194122,53.9487193 220.610793,53.8440993 220,53.8440993 C219.416671,53.8440993 218.839636,53.9487193 218.270897,54.1573859 C217.7013,54.3663392 217.201222,54.6790526 216.770949,55.0969591 C216.339818,55.5142924 215.992796,56.0502905 215.729025,56.703807 C215.464681,57.3581833 215.333368,58.1168929 215.333368,58.9787894 C215.333368,59.8418323 215.464681,60.6008286 215.729025,61.2543451 C215.992796,61.9084347 216.339818,62.451312 216.770949,62.8824035 C217.201222,63.3140683 217.7013,63.6336608 218.270897,63.8423274 C218.839636,64.0512807 219.416671,64.155614 220,64.155614 C220.610793,64.155614 221.194122,64.0512807 221.749987,63.8423274 Z M241,60 L241,54 L241,60 Z" id="di_to-do-p1"></path>
        </g>
    </g>
</svg>